<mxfile host="app.diagrams.net" modified="2024-03-12T19:49:48.078Z" agent="Mozilla/5.0 (Windows NT 10.0; Win64; x64) AppleWebKit/537.36 (KHTML, like Gecko) Chrome/120.0.0.0 Safari/537.36" version="24.0.5" etag="5wnfqmEsAbN4FUBOKrP9" type="github">
  <diagram name="第 1 页" id="8Gdv6Nlg4GySJg7BqZfB">
    <mxGraphModel>
      <root>
        <mxCell id="0" />
        <mxCell id="1" parent="0" />
      </root>
    </mxGraphModel>
  </diagram>
</mxfile>
